<svg xmlns="http://www.w3.org/2000/svg" width="339.18" height="419.22" viewBox="0 0 339.18 419.22"><defs><style>.cls-1{isolation:isolate;}.cls-2{fill:#f3cfb3;}.cls-3{fill:#fff;}.cls-4{fill:#f05b7e;}.cls-5{fill:#00aea5;}.cls-6{fill:#fed402;}.cls-7{fill:#c0c6cb;}.cls-8{fill:#8e9da7;}.cls-9{fill:#efeff0;}.cls-10{fill:#4a2566;}.cls-11{fill:#e0e0e0;}.cls-11,.cls-12{mix-blend-mode:multiply;}.cls-12{fill:#a79a99;}</style></defs><title>auspost-reports01a</title><g class="cls-1"><g id="Layer_1" data-name="Layer 1"><path class="cls-2" d="M226.18,282.44,107.86,364.83A12.93,12.93,0,1,1,93.08,343.6l118.33-82.39a12.93,12.93,0,1,1,14.77,21.23Z"/><path class="cls-3" d="M208,267.57l5.29-3.68a9.67,9.67,0,1,1,11,15.87L219,283.45Z"/><polygon class="cls-4" points="272.49 172.64 205.79 228.22 272.49 283.8 339.18 228.22 272.49 172.64"/><rect class="cls-5" x="224.32" y="63.5" width="96.34" height="96.34" rx="11.12" ry="11.12"/><rect class="cls-6" x="170.05" y="15.33" width="96.34" height="96.34" rx="11.12" ry="11.12" transform="translate(19.01 172.91) rotate(-45)"/><polygon class="cls-7" points="272.49 283.8 339.18 339.38 339.18 228.22 272.49 283.8"/><polygon class="cls-8" points="272.49 283.8 205.79 228.22 205.79 339.38 339.18 339.38 272.49 283.8"/><path class="cls-2" d="M237.31,347.5a3.71,3.71,0,0,1,3.7-3.71h60.28a10.38,10.38,0,0,0,0-20.75H241a3.71,3.71,0,0,1,0-7.41h47.55a10.38,10.38,0,1,0,0-20.75h-130a10.38,10.38,0,0,0-10.38,10.38v84.53a10.38,10.38,0,0,0,10.38,10.38H274.27a10.38,10.38,0,1,0,0-20.75h-9v0h-31.9a3.71,3.71,0,1,1,0-7.41h60.06a10.38,10.38,0,0,0,0-20.75H265.29v0H241A3.71,3.71,0,0,1,237.31,347.5Z"/><path class="cls-3" d="M269.1,382h5.17a7.77,7.77,0,0,1,0,15.53H269.1Z"/><path class="cls-3" d="M296.11,325.66h5.18a7.76,7.76,0,0,1,0,15.52h-5.18Z"/><path class="cls-3" d="M283.39,297.5h5.17a7.76,7.76,0,1,1,0,15.52h-5.17Z"/><path class="cls-3" d="M288.27,353.85h5.18a7.76,7.76,0,0,1,0,15.52h-5.18Z"/><rect class="cls-9" x="148.21" y="278.41" width="29.64" height="133.39"/><polygon class="cls-10" points="0 271 0 419.22 148.21 419.22 148.21 415.51 148.21 314.94 148.21 271 0 271"/><polygon class="cls-11" points="196.04 400.39 177.86 302.95 177.86 400.39 196.04 400.39"/><polygon class="cls-7" points="166.4 411.81 148.21 314.37 148.21 411.81 166.4 411.81"/><polygon class="cls-12" points="276.6 280.37 272.49 276.93 209.91 224.78 205.79 228.22 272.49 283.8 276.6 280.37"/></g></g></svg>