<svg id="Layer_1" data-name="Layer 1" xmlns="http://www.w3.org/2000/svg" xmlns:xlink="http://www.w3.org/1999/xlink" viewBox="0 0 5175 2461.65"><defs><style>.cls-1,.cls-4{fill:none;}.cls-2{clip-path:url(#clip-path);}.cls-3{opacity:0.36;}.cls-4{stroke:#fff;stroke-miterlimit:10;}</style><clipPath id="clip-path" transform="translate(986.5 11.08)"><rect class="cls-1" x="4" y="4.89" width="3860" height="2164"/></clipPath></defs><title>bg_texture</title><g class="cls-2"><rect class="cls-1" x="981.5" y="9.58" width="3880.1" height="2177"/><g class="cls-3"><polygon class="cls-4" points="2739.6 879.18 2739.6 879.18 2739.6 879.18 2739.6 879.18 2739.6 879.18"/><polygon class="cls-4" points="2739.6 1230.58 2739.6 1230.58 2739.6 1230.58 2739.6 1230.58"/><polygon class="cls-4" points="3348.3 527.98 3652.5 703.58 3652.7 703.38 3348.3 527.68 3044 703.38 3044.2 703.58 3348.3 527.98"/><polygon class="cls-4" points="4261.6 703.58 4565.7 527.98 4869.9 703.58 4870.1 703.38 4565.7 527.68 4261.4 703.38 4261.6 703.58"/><polygon class="cls-4" points="3348.3 1933.68 3044.2 1758.08 3044 1758.18 3348.3 1933.98 3652.7 1758.18 3652.5 1758.08 3348.3 1933.68"/><polygon class="cls-4" points="4261.6 1758.08 4261.4 1758.18 4565.7 1933.98 4870.1 1758.18 4869.9 1758.08 4565.7 1933.68 4261.6 1758.08"/><polygon class="cls-4" points="2739.6 1933.68 2435.5 1758.08 2435.3 1758.18 2739.6 1933.98 3044 1758.18 3043.8 1758.08 2739.6 1933.68"/><polygon class="cls-4" points="2131.2 1230.68 2130.9 1230.78 2131.2 1230.98 2131.4 1230.78 2131.2 1230.68"/><polygon class="cls-4" points="3043.8 703.58 3044 703.38 2739.6 527.68 2435.3 703.38 2435.5 703.58 2739.6 527.98 3043.8 703.58"/><polygon class="cls-4" points="3347.9 1230.78 3348.1 1230.98 3348.3 1230.78 3348.1 1230.68 3347.9 1230.78"/><polygon class="cls-4" points="1522.2 1230.78 1522.5 1230.98 1522.7 1230.78 1522.5 1230.68 1522.2 1230.78"/><polygon class="cls-4" points="2739.4 1230.68 2739.2 1230.78 2739.4 1230.98 2739.6 1230.78 2739.4 1230.68"/><polygon class="cls-4" points="2130.5 1230.78 2130.7 1230.98 2130.9 1230.78 2130.7 1230.68 2130.5 1230.78"/><polygon class="cls-4" points="3348.3 1230.78 3348.6 1230.98 3348.8 1230.78 3348.6 1230.68 3348.3 1230.78"/><polygon class="cls-4" points="3957 1230.78 3957.3 1230.98 3957.5 1230.78 3957.3 1230.68 3957 1230.78"/><polygon class="cls-4" points="4565.5 1230.98 4565.7 1230.78 4565.5 1230.68 4565.3 1230.78 4565.5 1230.98"/><polygon class="cls-4" points="3957 1933.68 3652.9 1758.08 3652.7 1758.18 3957 1933.98 4261.4 1758.18 4261.2 1758.08 3957 1933.68"/><polygon class="cls-4" points="3956.8 1230.68 3956.6 1230.78 3956.8 1230.98 3957 1230.78 3956.8 1230.68"/><polygon class="cls-4" points="3957 527.98 4261.2 703.58 4261.4 703.38 3957 527.68 3652.7 703.38 3652.9 703.58 3957 527.98"/><polygon class="cls-4" points="2739.9 1230.68 2739.6 1230.78 2739.9 1230.98 2740.1 1230.78 2739.9 1230.68"/><polygon class="cls-4" points="1218.1 1758.08 1217.9 1758.18 1522.2 1933.98 1826.6 1758.18 1826.4 1758.08 1522.2 1933.68 1218.1 1758.08"/><polygon class="cls-4" points="305.1 1230.68 304.8 1230.78 305.1 1230.98 305.3 1230.78 305.1 1230.68"/><polygon class="cls-4" points="913.1 1230.78 913.3 1230.98 913.5 1230.78 913.3 1230.68 913.1 1230.78"/><polygon class="cls-4" points="913.5 1230.78 913.8 1230.98 914 1230.78 913.8 1230.68 913.5 1230.78"/><polygon class="cls-4" points="4565.9 1230.98 4566.2 1230.78 4565.9 1230.68 4565.7 1230.78 4565.9 1230.98"/><polygon class="cls-4" points="1522 1230.68 1521.8 1230.78 1522 1230.98 1522.2 1230.78 1522 1230.68"/><polygon class="cls-4" points="1826.4 703.58 1826.6 703.38 1522.2 527.68 1217.9 703.38 1218.1 703.58 1522.2 527.98 1826.4 703.58"/><polygon class="cls-4" points="2739.6 1230.78 2739.6 1230.78 2739.9 1230.68 2739.6 1230.58 2739.4 1230.68 2739.6 1230.78"/><polygon class="cls-4" points="3043.8 703.58 2739.6 527.98 2435.5 703.58 2739.6 879.18 3043.8 703.58"/><polygon class="cls-4" points="3652.5 703.58 3348.3 527.98 3044.2 703.58 3348.3 879.18 3652.5 703.58"/><polygon class="cls-4" points="3348.1 1230.68 3348.3 1230.78 3348.3 1230.78 3348.3 1230.78 3348.6 1230.68 3348.3 1230.58 3348.1 1230.68"/><polygon class="cls-4" points="4261.2 703.58 3957 527.98 3652.9 703.58 3957 879.18 4261.2 703.58"/><polygon class="cls-4" points="3957 1230.78 3957 1230.78 3957.3 1230.68 3957 1230.58 3956.8 1230.68 3957 1230.78"/><polygon class="cls-4" points="4565.5 1230.68 4565.7 1230.78 4565.7 1230.78 4565.7 1230.78 4565.9 1230.68 4565.7 1230.58 4565.5 1230.68"/><polygon class="cls-4" points="4261.6 703.58 4565.7 879.18 4869.9 703.58 4565.7 527.98 4261.6 703.58"/><polygon class="cls-4" points="3044 1406.28 2740.1 1230.78 2739.9 1230.98 3044 1406.58 3348.1 1230.98 3347.9 1230.78 3044 1406.28"/><polygon class="cls-4" points="3044 1757.98 3043.8 1758.08 3044 1758.18 3044 1758.18 3044 1758.18 3044.2 1758.08 3044 1757.98"/><polygon class="cls-4" points="3652.7 1757.98 3652.7 1406.58 3956.8 1230.98 3956.6 1230.78 3652.7 1406.28 3348.8 1230.78 3348.6 1230.98 3652.7 1406.58 3652.7 1757.98 3652.5 1758.08 3652.7 1758.18 3652.7 1758.18 3652.7 1758.18 3652.9 1758.08 3652.7 1757.98"/><polygon class="cls-4" points="4261.4 1757.98 4261.4 1406.58 4565.5 1230.98 4565.3 1230.78 4261.4 1406.28 3957.5 1230.78 3957.3 1230.98 4261.4 1406.58 4261.4 1757.98 4261.2 1758.08 4261.4 1758.18 4261.4 1758.18 4261.4 1758.18 4261.6 1758.08 4261.4 1757.98"/><polygon class="cls-4" points="4566.2 1230.78 4565.9 1230.98 4870.1 1406.58 4870.1 1757.98 4869.9 1758.08 4870.1 1758.18 4870.1 1758.18 4870.1 1758.18 5174.4 1582.48 5174.4 1231.08 5174 1230.78 4870.1 1406.28 4566.2 1230.78"/><polygon class="cls-4" points="2739.6 527.68 2739.6 527.68 3044 703.38 3044 703.38 3044 703.38 3348.3 527.68 3348.3 176.28 3044 0.58 2739.6 176.28 2739.6 176.28 2739.6 527.68"/><polygon class="cls-4" points="3652.7 703.38 3652.7 703.38 3652.7 703.38 3957 527.68 3957 176.28 3652.7 0.58 3348.3 176.28 3348.3 527.68 3652.7 703.38"/><polygon class="cls-4" points="4261.4 703.38 4261.4 703.38 4261.4 703.38 4565.7 527.68 4565.7 176.28 4261.4 0.58 3957 176.28 3957 527.68 4261.4 703.38"/><polygon class="cls-4" points="5174.4 176.28 4870.1 0.58 4565.7 176.28 4565.7 527.68 4870.1 703.38 4870.1 703.38 4870.1 703.38 5174.4 527.68 5174.4 176.28"/><polygon class="cls-4" points="304.8 1230.78 305.1 1230.68 304.8 1230.58 304.8 879.18 609 703.58 304.8 527.98 0.5 703.68 0.5 1055.08 304.8 1230.78 304.8 1230.78"/><polygon class="cls-4" points="913.5 1230.58 913.3 1230.68 913.5 1230.78 913.5 1230.78 913.5 1230.78 913.8 1230.68 913.5 1230.58 913.5 879.18 1217.7 703.58 913.5 527.98 609.4 703.58 913.5 879.18 913.5 1230.58"/><polygon class="cls-4" points="1826.4 703.58 1522.2 527.98 1218.1 703.58 1522.2 879.18 1826.4 703.58"/><polygon class="cls-4" points="1522.2 1230.78 1522.2 1230.78 1522.5 1230.68 1522.2 1230.58 1522 1230.68 1522.2 1230.78"/><polygon class="cls-4" points="2130.9 1230.58 2130.7 1230.68 2130.9 1230.78 2130.9 1230.78 2130.9 1230.78 2131.2 1230.68 2130.9 1230.58 2130.9 879.18 2435.1 703.58 2130.9 527.98 1826.8 703.58 2130.9 879.18 2130.9 1230.58"/><polygon class="cls-4" points="609.2 1406.28 305.3 1230.78 305.1 1230.98 609.2 1406.58 913.3 1230.98 913.1 1230.78 609.2 1406.28"/><polygon class="cls-4" points="609 1758.08 609.2 1758.18 609.2 1758.18 609.2 1758.18 609.4 1758.08 609.2 1757.98 609 1758.08"/><polygon class="cls-4" points="1217.9 1758.18 1218.1 1758.08 1217.9 1757.98 1217.9 1406.58 1522 1230.98 1521.8 1230.78 1217.9 1406.28 914 1230.78 913.8 1230.98 1217.9 1406.58 1217.9 1757.98 1217.7 1758.08 1217.9 1758.18 1217.9 1758.18"/><polygon class="cls-4" points="1826.6 1406.58 2130.7 1230.98 2130.5 1230.78 1826.6 1406.28 1522.7 1230.78 1522.5 1230.98 1826.6 1406.58 1826.6 1757.98 1826.4 1758.08 1826.6 1758.18 1826.6 1758.18 1826.6 1758.18 1826.8 1758.08 1826.6 1757.98 1826.6 1406.58"/><polygon class="cls-4" points="2739.2 1230.78 2435.3 1406.28 2131.4 1230.78 2131.2 1230.98 2435.3 1406.58 2739.4 1230.98 2739.2 1230.78"/><polygon class="cls-4" points="2435.3 1758.18 2435.5 1758.08 2435.3 1757.98 2435.1 1758.08 2435.3 1758.18 2435.3 1758.18"/><polygon class="cls-4" points="609.2 703.38 913.5 527.68 913.5 176.28 609.2 0.58 304.8 176.28 304.8 527.68 609.2 703.38 609.2 703.38"/><polygon class="cls-4" points="1217.9 703.38 1522.2 527.68 1522.2 176.28 1217.9 0.58 913.5 176.28 913.5 527.68 1217.9 703.38 1217.9 703.38"/><polygon class="cls-4" points="1826.6 703.38 1826.6 703.38 1826.6 703.38 2130.9 527.68 2130.9 176.28 1826.6 0.58 1522.2 176.28 1522.2 527.68 1826.6 703.38"/><polygon class="cls-4" points="2435.3 703.38 2739.6 527.68 2739.6 527.68 2739.6 176.28 2739.6 176.28 2435.3 0.58 2130.9 176.28 2130.9 527.68 2435.3 703.38 2435.3 703.38"/><polygon class="cls-4" points="2739.6 527.68 2739.6 527.68 2739.6 527.68 2739.6 176.28 2739.6 176.28 2739.6 176.28 2739.6 527.68"/><polygon class="cls-4" points="3043.8 1758.08 2739.6 1582.48 2435.5 1758.08 2739.6 1933.68 3043.8 1758.08"/><polygon class="cls-4" points="2739.6 1230.78 2739.6 1230.78 2739.6 1230.78 2739.4 1230.98 2739.6 1231.08 2739.9 1230.98 2739.6 1230.78"/><polygon class="cls-4" points="2739.6 1230.78 2739.6 1230.78 2739.6 1230.78 2739.6 1230.78"/><polygon class="cls-4" points="2739.9 1230.98 2739.6 1231.08 2739.6 1231.08 2739.6 1582.48 2739.6 1582.48 3043.8 1758.08 3044 1757.98 3044 1406.58 2739.9 1230.98"/><polygon class="cls-4" points="2739.6 1231.08 2739.6 1231.08 2739.4 1230.98 2435.3 1406.58 2435.3 1757.98 2435.5 1758.08 2739.6 1582.48 2739.6 1231.08"/><polygon class="cls-4" points="2739.6 1231.08 2739.6 1231.08 2739.6 1231.08 2739.6 1582.48 2739.6 1582.48 2739.6 1231.08"/><polygon class="cls-4" points="3044.2 1758.08 3348.3 1933.68 3652.5 1758.08 3348.3 1582.48 3044.2 1758.08"/><polygon class="cls-4" points="3348.3 1230.78 3348.3 1230.78 3348.1 1230.98 3348.3 1231.08 3348.6 1230.98 3348.3 1230.78"/><polygon class="cls-4" points="3348.3 1230.78 3348.3 1230.78 3348.3 1230.78 3348.3 1230.78"/><polygon class="cls-4" points="3348.3 1231.08 3348.1 1230.98 3044 1406.58 3044 1757.98 3044.2 1758.08 3348.3 1582.48 3348.3 1231.08"/><polygon class="cls-4" points="3348.3 1582.48 3652.5 1758.08 3652.7 1757.98 3652.7 1406.58 3348.6 1230.98 3348.3 1231.08 3348.3 1582.48"/><polygon class="cls-4" points="3652.9 1758.08 3957 1933.68 4261.2 1758.08 3957 1582.48 3652.9 1758.08"/><polygon class="cls-4" points="3957 1230.78 3957 1230.78 3956.8 1230.98 3957 1231.08 3957.3 1230.98 3957 1230.78"/><polygon class="cls-4" points="3957 1230.78 3957 1230.78 3957 1230.78 3957 1230.78"/><polygon class="cls-4" points="3957 1231.08 3956.8 1230.98 3652.7 1406.58 3652.7 1757.98 3652.9 1758.08 3957 1582.48 3957 1231.08"/><polygon class="cls-4" points="3957 1582.48 4261.2 1758.08 4261.4 1757.98 4261.4 1406.58 3957.3 1230.98 3957 1231.08 3957 1582.48"/><polygon class="cls-4" points="4261.6 1758.08 4565.7 1933.68 4869.9 1758.08 4565.7 1582.48 4261.6 1758.08"/><polygon class="cls-4" points="4565.7 1230.78 4565.7 1230.78 4565.5 1230.98 4565.7 1231.08 4565.9 1230.98 4565.7 1230.78"/><polygon class="cls-4" points="4565.65 1230.83 4565.65 1230.83 4565.65 1230.83 4565.65 1230.83"/><polygon class="cls-4" points="4261.4 1757.98 4261.6 1758.08 4565.7 1582.48 4565.7 1231.08 4565.5 1230.98 4261.4 1406.58 4261.4 1757.98"/><polygon class="cls-4" points="4565.7 1582.48 4869.9 1758.08 4870.1 1757.98 4870.1 1406.58 4565.9 1230.98 4565.7 1231.08 4565.7 1582.48"/><polygon class="cls-4" points="3044 1758.18 3044 1758.18 3044 1758.18 2739.6 1933.98 2739.6 1933.98 2739.6 2285.38 2739.6 2285.38 3044 2461.08 3348.3 2285.38 3348.3 1933.98 3044 1758.18"/><circle class="cls-4" cx="3044" cy="1758.18"/><polygon class="cls-4" points="3652.7 1758.18 3652.7 1758.18 3652.7 1758.18 3348.3 1933.98 3348.3 2285.38 3652.7 2461.08 3957 2285.38 3957 1933.98 3652.7 1758.18"/><circle class="cls-4" cx="3652.7" cy="1758.18"/><polygon class="cls-4" points="4261.4 1758.18 4261.4 1758.18 4261.4 1758.18 3957 1933.98 3957 2285.38 4261.4 2461.08 4565.7 2285.38 4565.7 1933.98 4261.4 1758.18"/><circle class="cls-4" cx="4261.4" cy="1758.18"/><polygon class="cls-4" points="4870.1 1758.18 4565.7 1933.98 4565.7 2285.38 4870.1 2461.08 5174.4 2285.38 5174.4 1933.98 4870.1 1758.18 4870.1 1758.18"/><circle class="cls-4" cx="4870.1" cy="1758.18"/><polygon class="cls-4" points="3044 1055.38 3347.9 1230.78 3348.1 1230.68 3044 1055.08 2740.1 1230.58 2740.1 1230.58 2740.1 1230.58 2739.9 1230.68 2740.1 1230.78 3044 1055.38"/><polygon class="cls-4" points="3044 703.68 3044.2 703.58 3044 703.38 3044 703.38 3044 703.38 3043.8 703.58 3044 703.68"/><polygon class="cls-4" points="2739.6 879.18 2740.1 879.18 2740.1 1230.58 3044 1055.08 3044 703.68 3043.8 703.58 2739.6 879.18 2739.6 879.18"/><polygon class="cls-4" points="2739.6 1230.58 2739.6 1230.58 2739.6 1230.58 2739.9 1230.68 2740.1 1230.58 2739.6 1230.58"/><polygon class="cls-4" points="3348.1 1230.68 3348.3 1230.58 3348.3 879.18 3044.2 703.58 3044 703.68 3044 1055.08 3348.1 1230.68"/><polygon class="cls-4" points="2740.1 1230.78 3044 1406.28 3347.9 1230.78 3044 1055.38 2740.1 1230.78"/><circle class="cls-4" cx="3044" cy="703.38"/><polygon class="cls-4" points="3652.7 703.68 3652.7 1055.08 3348.6 1230.68 3348.8 1230.78 3652.7 1055.38 3956.6 1230.78 3956.8 1230.68 3652.7 1055.08 3652.7 703.68 3652.9 703.58 3652.7 703.38 3652.7 703.38 3652.7 703.38 3652.5 703.58 3652.7 703.68"/><polygon class="cls-4" points="3348.3 1230.58 3348.6 1230.68 3652.7 1055.08 3652.7 703.68 3652.5 703.58 3348.3 879.18 3348.3 1230.58"/><polygon class="cls-4" points="3957 879.18 3652.9 703.58 3652.7 703.68 3652.7 1055.08 3956.8 1230.68 3957 1230.58 3957 879.18"/><polygon class="cls-4" points="3348.8 1230.78 3652.7 1406.28 3956.6 1230.78 3652.7 1055.38 3348.8 1230.78"/><circle class="cls-4" cx="3652.7" cy="703.38"/><polygon class="cls-4" points="4261.4 703.68 4261.4 1055.08 3957.3 1230.68 3957.5 1230.78 4261.4 1055.38 4565.3 1230.78 4565.5 1230.68 4261.4 1055.08 4261.4 703.68 4261.6 703.58 4261.4 703.38 4261.4 703.38 4261.4 703.38 4261.2 703.58 4261.4 703.68"/><polygon class="cls-4" points="3957 1230.58 3957.3 1230.68 4261.4 1055.08 4261.4 703.68 4261.2 703.58 3957 879.18 3957 1230.58"/><polygon class="cls-4" points="4261.4 1055.08 4565.5 1230.68 4565.7 1230.58 4565.7 879.18 4261.6 703.58 4261.4 703.68 4261.4 1055.08"/><polygon class="cls-4" points="3957.5 1230.78 4261.4 1406.28 4565.3 1230.78 4261.4 1055.38 3957.5 1230.78"/><circle class="cls-4" cx="4261.4" cy="703.38"/><polygon class="cls-4" points="4870.1 703.38 4869.9 703.58 4870.1 703.68 4870.1 1055.08 4565.9 1230.68 4566.2 1230.78 4870.1 1055.38 5174 1230.78 5174.4 1230.58 5174.4 879.18 4870.1 703.38 4870.1 703.38"/><polygon class="cls-4" points="4565.7 1230.58 4565.9 1230.68 4870.1 1055.08 4870.1 703.68 4869.9 703.58 4565.7 879.18 4565.7 1230.58"/><polygon class="cls-4" points="4566.2 1230.78 4870.1 1406.28 5174 1230.78 4870.1 1055.38 4566.2 1230.78"/><circle class="cls-4" cx="4870.1" cy="703.38"/><polygon class="cls-4" points="304.8 1231.08 305.1 1230.98 304.8 1230.78 304.8 1230.78 304.8 1230.78 0.5 1406.58 0.5 1757.98 304.8 1933.68 609 1758.08 304.8 1582.48 304.8 1231.08"/><circle class="cls-4" cx="304.8" cy="1230.78"/><polygon class="cls-4" points="609.2 1406.58 305.1 1230.98 304.8 1231.08 304.8 1582.48 609 1758.08 609.2 1757.98 609.2 1406.58"/><polygon class="cls-4" points="913.5 1231.08 913.8 1230.98 913.5 1230.78 913.5 1230.78 913.5 1230.78 913.3 1230.98 913.5 1231.08 913.5 1582.48 609.4 1758.08 913.5 1933.68 1217.7 1758.08 913.5 1582.48 913.5 1231.08"/><circle class="cls-4" cx="913.5" cy="1230.78"/><polygon class="cls-4" points="913.5 1231.08 913.3 1230.98 609.2 1406.58 609.2 1757.98 609.4 1758.08 913.5 1582.48 913.5 1231.08"/><polygon class="cls-4" points="1217.9 1406.58 913.8 1230.98 913.5 1231.08 913.5 1582.48 1217.7 1758.08 1217.9 1757.98 1217.9 1406.58"/><polygon class="cls-4" points="1522.2 1230.78 1522.2 1230.78 1522 1230.98 1522.2 1231.08 1522.5 1230.98 1522.2 1230.78"/><polygon class="cls-4" points="1218.1 1758.08 1522.2 1933.68 1826.4 1758.08 1522.2 1582.48 1218.1 1758.08"/><circle class="cls-4" cx="1522.2" cy="1230.78"/><polygon class="cls-4" points="1522.2 1231.08 1522 1230.98 1217.9 1406.58 1217.9 1757.98 1218.1 1758.08 1522.2 1582.48 1522.2 1231.08"/><polygon class="cls-4" points="1522.2 1582.48 1826.4 1758.08 1826.6 1757.98 1826.6 1406.58 1522.5 1230.98 1522.2 1231.08 1522.2 1582.48"/><polygon class="cls-4" points="2130.9 1231.08 2131.2 1230.98 2130.9 1230.78 2130.9 1230.78 2130.9 1230.78 2130.7 1230.98 2130.9 1231.08 2130.9 1582.48 1826.8 1758.08 2130.9 1933.68 2435.1 1758.08 2130.9 1582.48 2130.9 1231.08"/><circle class="cls-4" cx="2130.9" cy="1230.78"/><polygon class="cls-4" points="2130.9 1231.08 2130.7 1230.98 1826.6 1406.58 1826.6 1757.98 1826.8 1758.08 2130.9 1582.48 2130.9 1231.08"/><polygon class="cls-4" points="2435.3 1757.98 2435.3 1406.58 2435.3 1406.58 2131.2 1230.98 2130.9 1231.08 2130.9 1582.48 2435.1 1758.08 2435.3 1757.98"/><rect class="cls-4" x="2435.3" y="1406.58" height="351.4"/><polygon class="cls-4" points="609.2 1758.18 304.8 1933.98 304.8 2285.38 609.2 2461.08 913.5 2285.38 913.5 1933.98 609.2 1758.18 609.2 1758.18"/><circle class="cls-4" cx="609.2" cy="1758.18"/><polygon class="cls-4" points="1217.9 1758.18 1217.9 1758.18 1217.9 1758.18 913.5 1933.98 913.5 2285.38 1217.9 2461.08 1522.2 2285.38 1522.2 1933.98 1217.9 1758.18"/><circle class="cls-4" cx="1217.9" cy="1758.18"/><polygon class="cls-4" points="1826.6 1758.18 1522.2 1933.98 1522.2 2285.38 1826.6 2461.08 2130.9 2285.38 2130.9 1933.98 1826.6 1758.18 1826.6 1758.18"/><circle class="cls-4" cx="1826.6" cy="1758.18"/><polygon class="cls-4" points="2739.6 1933.98 2435.3 1758.18 2435.3 1758.18 2435.3 1758.18 2130.9 1933.98 2130.9 2285.38 2435.3 2461.08 2739.6 2285.38 2739.6 2285.38 2739.6 1933.98"/><circle class="cls-4" cx="2435.3" cy="1758.18"/><polygon class="cls-4" points="2739.6 1933.98 2739.6 1933.98 2739.6 2285.38 2739.6 2285.38 2739.6 2285.38 2739.6 1933.98"/><polygon class="cls-4" points="609.4 703.58 609.2 703.38 609.2 703.38 609.2 703.38 609 703.58 609.2 703.68 609.4 703.58"/><polygon class="cls-4" points="609.2 1055.38 913.1 1230.78 913.3 1230.68 609.2 1055.08 305.1 1230.68 305.3 1230.78 609.2 1055.38"/><polygon class="cls-4" points="304.8 1230.58 305.1 1230.68 609.2 1055.08 609.2 703.68 609 703.58 304.8 879.18 304.8 1230.58"/><polygon class="cls-4" points="609.2 1055.08 913.3 1230.68 913.5 1230.58 913.5 879.18 609.4 703.58 609.2 703.68 609.2 1055.08"/><polygon class="cls-4" points="305.3 1230.78 609.2 1406.28 913.1 1230.78 609.2 1055.38 305.3 1230.78"/><circle class="cls-4" cx="609.2" cy="703.38"/><polygon class="cls-4" points="1217.9 1055.08 913.8 1230.68 914 1230.78 1217.9 1055.38 1521.8 1230.78 1522 1230.68 1217.9 1055.08 1217.9 703.68 1218.1 703.58 1217.9 703.38 1217.9 703.38 1217.9 703.38 1217.7 703.58 1217.9 703.68 1217.9 1055.08"/><polygon class="cls-4" points="913.5 1230.58 913.8 1230.68 1217.9 1055.08 1217.9 703.68 1217.7 703.58 913.5 879.18 913.5 1230.58"/><polygon class="cls-4" points="1522.2 879.18 1218.1 703.58 1217.9 703.68 1217.9 1055.08 1522 1230.68 1522.2 1230.58 1522.2 879.18"/><polygon class="cls-4" points="914 1230.78 1217.9 1406.28 1521.8 1230.78 1217.9 1055.38 914 1230.78"/><circle class="cls-4" cx="1217.9" cy="703.38"/><polygon class="cls-4" points="1826.6 703.38 1826.4 703.58 1826.6 703.68 1826.6 1055.08 1522.5 1230.68 1522.7 1230.78 1826.6 1055.38 2130.5 1230.78 2130.7 1230.68 1826.6 1055.08 1826.6 703.68 1826.8 703.58 1826.6 703.38 1826.6 703.38"/><polygon class="cls-4" points="1522.2 1230.58 1522.5 1230.68 1826.6 1055.08 1826.6 703.68 1826.4 703.58 1522.2 879.18 1522.2 1230.58"/><polygon class="cls-4" points="1826.6 1055.08 2130.7 1230.68 2130.9 1230.58 2130.9 879.18 1826.8 703.58 1826.6 703.68 1826.6 1055.08"/><polygon class="cls-4" points="1522.7 1230.78 1826.6 1406.28 2130.5 1230.78 1826.6 1055.38 1522.7 1230.78"/><circle class="cls-4" cx="1826.6" cy="703.38"/><polygon class="cls-4" points="2435.3 1055.38 2739.2 1230.78 2739.4 1230.68 2739.2 1230.58 2739.1 1230.58 2739.1 1230.58 2435.3 1055.08 2131.2 1230.68 2131.4 1230.78 2435.3 1055.38"/><polygon class="cls-4" points="2435.5 703.58 2435.3 703.38 2435.3 703.38 2435.3 703.38 2435.1 703.58 2435.3 703.68 2435.5 703.58"/><polygon class="cls-4" points="2739.1 1054.88 2739.1 879.18 2739.6 879.18 2739.6 879.18 2739.6 879.18 2435.5 703.58 2435.3 703.68 2435.3 703.68 2435.3 1055.08 2435.3 1055.08 2739.1 1230.58 2739.1 1054.88"/><polygon class="cls-4" points="2739.6 1230.58 2739.2 1230.58 2739.4 1230.68 2739.6 1230.58"/><polygon class="cls-4" points="2130.9 1230.58 2131.2 1230.68 2435.3 1055.08 2435.3 1055.08 2435.3 703.68 2435.3 703.68 2435.1 703.58 2130.9 879.18 2130.9 1230.58"/><polygon class="cls-4" points="2435.3 703.68 2435.3 703.68 2435.3 703.68 2435.3 1055.08 2435.3 1055.08 2435.3 1055.08 2435.3 703.68"/><polygon class="cls-4" points="2131.4 1230.78 2435.3 1406.28 2739.2 1230.78 2435.3 1055.38 2131.4 1230.78"/><circle class="cls-4" cx="2435.3" cy="703.38"/><rect class="cls-4" x="2739.6" y="879.18" height="351.4"/><path class="cls-4" d="M1753.6,1219.5Z" transform="translate(986.5 11.08)"/><polygon class="cls-4" points="2740.1 1230.58 2740.1 879.18 2739.6 879.18 2739.6 1230.58 2740.1 1230.58"/><path class="cls-4" d="M1752.6,1219.5h0Z" transform="translate(986.5 11.08)"/><polygon class="cls-4" points="2739.6 879.18 2739.1 879.18 2739.1 1054.88 2739.1 1230.58 2739.2 1230.58 2739.6 1230.58 2739.6 879.18"/></g></g></svg>