<svg id="Layer_1" data-name="Layer 1" xmlns="http://www.w3.org/2000/svg" xmlns:xlink="http://www.w3.org/1999/xlink" width="3860" height="2164" viewBox="382.1 15.97 3860 2164"><defs><style>.cls-1,.cls-3{fill:none;}.cls-2{clip-path:url(#clip-path);}.cls-3{stroke:#fff;stroke-miterlimit:10;opacity:0.35;}</style><clipPath id="clip-path" transform="translate(0 0)"><rect class="cls-1" x="382.1" y="15.97" width="3860" height="2164"/></clipPath></defs><title>bg_texture01aIE</title><g class="cls-2"><rect class="cls-1" x="373.1" y="9.58" width="3880.1" height="2177"/><polygon class="cls-3" points="2131.2 879.18 2131.2 879.18 2131.2 879.18 2131.2 879.18 2131.2 879.18"/><polygon class="cls-3" points="2131.2 1230.58 2131.2 1230.58 2131.2 1230.58 2131.2 1230.58"/><polygon class="cls-3" points="2739.9 527.98 3044.1 703.58 3044.3 703.38 2739.9 527.68 2435.6 703.38 2435.8 703.58 2739.9 527.98"/><polygon class="cls-3" points="3653.2 703.58 3957.3 527.98 4261.5 703.58 4261.7 703.38 3957.3 527.68 3653 703.38 3653.2 703.58"/><polygon class="cls-3" points="2739.9 1933.68 2435.8 1758.08 2435.6 1758.18 2739.9 1933.98 3044.3 1758.18 3044.1 1758.08 2739.9 1933.68"/><polygon class="cls-3" points="3653.2 1758.08 3653 1758.18 3957.3 1933.98 4261.7 1758.18 4261.5 1758.08 3957.3 1933.68 3653.2 1758.08"/><polygon class="cls-3" points="2131.2 1933.68 1827.1 1758.08 1826.9 1758.18 2131.2 1933.98 2435.6 1758.18 2435.4 1758.08 2131.2 1933.68"/><polygon class="cls-3" points="1522.8 1230.68 1522.5 1230.78 1522.8 1230.98 1523 1230.78 1522.8 1230.68"/><polygon class="cls-3" points="2435.4 703.58 2435.6 703.38 2131.2 527.68 1826.9 703.38 1827.1 703.58 2131.2 527.98 2435.4 703.58"/><polygon class="cls-3" points="2739.5 1230.78 2739.7 1230.98 2739.9 1230.78 2739.7 1230.68 2739.5 1230.78"/><polygon class="cls-3" points="913.8 1230.78 914.1 1230.98 914.3 1230.78 914.1 1230.68 913.8 1230.78"/><polygon class="cls-3" points="2131 1230.68 2130.8 1230.78 2131 1230.98 2131.2 1230.78 2131 1230.68"/><polygon class="cls-3" points="1522.1 1230.78 1522.3 1230.98 1522.5 1230.78 1522.3 1230.68 1522.1 1230.78"/><polygon class="cls-3" points="2739.9 1230.78 2740.2 1230.98 2740.4 1230.78 2740.2 1230.68 2739.9 1230.78"/><polygon class="cls-3" points="3348.6 1230.78 3348.9 1230.98 3349.1 1230.78 3348.9 1230.68 3348.6 1230.78"/><polygon class="cls-3" points="3957.1 1230.98 3957.3 1230.78 3957.1 1230.68 3956.9 1230.78 3957.1 1230.98"/><polygon class="cls-3" points="3348.6 1933.68 3044.5 1758.08 3044.3 1758.18 3348.6 1933.98 3653 1758.18 3652.8 1758.08 3348.6 1933.68"/><polygon class="cls-3" points="3348.4 1230.68 3348.2 1230.78 3348.4 1230.98 3348.6 1230.78 3348.4 1230.68"/><polygon class="cls-3" points="3348.6 527.98 3652.8 703.58 3653 703.38 3348.6 527.68 3044.3 703.38 3044.5 703.58 3348.6 527.98"/><polygon class="cls-3" points="2131.5 1230.68 2131.2 1230.78 2131.5 1230.98 2131.7 1230.78 2131.5 1230.68"/><polygon class="cls-3" points="609.7 1758.08 609.5 1758.18 913.8 1933.98 1218.2 1758.18 1218 1758.08 913.8 1933.68 609.7 1758.08"/><polygon class="cls-3" points="3957.5 1230.98 3957.8 1230.78 3957.5 1230.68 3957.3 1230.78 3957.5 1230.98"/><polygon class="cls-3" points="913.6 1230.68 913.4 1230.78 913.6 1230.98 913.8 1230.78 913.6 1230.68"/><polygon class="cls-3" points="1218 703.58 1218.2 703.38 913.8 527.68 609.5 703.38 609.7 703.58 913.8 527.98 1218 703.58"/><polygon class="cls-3" points="2131.2 1230.78 2131.2 1230.78 2131.5 1230.68 2131.2 1230.58 2131 1230.68 2131.2 1230.78"/><polygon class="cls-3" points="2435.4 703.58 2131.2 527.98 1827.1 703.58 2131.2 879.18 2435.4 703.58"/><polygon class="cls-3" points="3044.1 703.58 2739.9 527.98 2435.8 703.58 2739.9 879.18 3044.1 703.58"/><polygon class="cls-3" points="2739.7 1230.68 2739.9 1230.78 2739.9 1230.78 2739.9 1230.78 2740.2 1230.68 2739.9 1230.58 2739.7 1230.68"/><polygon class="cls-3" points="3652.8 703.58 3348.6 527.98 3044.5 703.58 3348.6 879.18 3652.8 703.58"/><polygon class="cls-3" points="3348.6 1230.78 3348.6 1230.78 3348.9 1230.68 3348.6 1230.58 3348.4 1230.68 3348.6 1230.78"/><polygon class="cls-3" points="3957.1 1230.68 3957.3 1230.78 3957.3 1230.78 3957.3 1230.78 3957.5 1230.68 3957.3 1230.58 3957.1 1230.68"/><polygon class="cls-3" points="3653.2 703.58 3957.3 879.18 4261.5 703.58 3957.3 527.98 3653.2 703.58"/><polygon class="cls-3" points="2435.6 1406.28 2131.7 1230.78 2131.5 1230.98 2435.6 1406.58 2739.7 1230.98 2739.5 1230.78 2435.6 1406.28"/><polygon class="cls-3" points="2435.6 1757.98 2435.4 1758.08 2435.6 1758.18 2435.6 1758.18 2435.6 1758.18 2435.8 1758.08 2435.6 1757.98"/><polygon class="cls-3" points="3044.3 1757.98 3044.3 1406.58 3348.4 1230.98 3348.2 1230.78 3044.3 1406.28 2740.4 1230.78 2740.2 1230.98 3044.3 1406.58 3044.3 1757.98 3044.1 1758.08 3044.3 1758.18 3044.3 1758.18 3044.3 1758.18 3044.5 1758.08 3044.3 1757.98"/><polygon class="cls-3" points="3653 1757.98 3653 1406.58 3957.1 1230.98 3956.9 1230.78 3653 1406.28 3349.1 1230.78 3348.9 1230.98 3653 1406.58 3653 1757.98 3652.8 1758.08 3653 1758.18 3653 1758.18 3653 1758.18 3653.2 1758.08 3653 1757.98"/><polygon class="cls-3" points="3957.8 1230.78 3957.5 1230.98 4261.7 1406.58 4261.7 1757.98 4261.5 1758.08 4261.7 1758.18 4261.7 1758.18 4261.7 1758.18 4566 1582.48 4566 1231.08 4565.6 1230.78 4261.7 1406.28 3957.8 1230.78"/><polygon class="cls-3" points="2131.2 527.68 2131.2 527.68 2435.6 703.38 2435.6 703.38 2435.6 703.38 2739.9 527.68 2739.9 176.28 2435.6 0.58 2131.2 176.28 2131.2 176.28 2131.2 527.68"/><polygon class="cls-3" points="3044.3 703.38 3044.3 703.38 3044.3 703.38 3348.6 527.68 3348.6 176.28 3044.3 0.58 2739.9 176.28 2739.9 527.68 3044.3 703.38"/><polygon class="cls-3" points="3653 703.38 3653 703.38 3653 703.38 3957.3 527.68 3957.3 176.28 3653 0.58 3348.6 176.28 3348.6 527.68 3653 703.38"/><polygon class="cls-3" points="4566 176.28 4261.7 0.58 3957.3 176.28 3957.3 527.68 4261.7 703.38 4261.7 703.38 4261.7 703.38 4566 527.68 4566 176.28"/><polygon class="cls-3" points="305.1 1230.58 304.9 1230.68 305.1 1230.78 305.1 1230.78 305.1 1230.78 305.4 1230.68 305.1 1230.58 305.1 879.18 609.3 703.58 305.1 527.98 1 703.58 305.1 879.18 305.1 1230.58"/><polygon class="cls-3" points="1218 703.58 913.8 527.98 609.7 703.58 913.8 879.18 1218 703.58"/><polygon class="cls-3" points="913.8 1230.78 913.8 1230.78 914.1 1230.68 913.8 1230.58 913.6 1230.68 913.8 1230.78"/><polygon class="cls-3" points="1522.5 1230.58 1522.3 1230.68 1522.5 1230.78 1522.5 1230.78 1522.5 1230.78 1522.8 1230.68 1522.5 1230.58 1522.5 879.18 1826.7 703.58 1522.5 527.98 1218.4 703.58 1522.5 879.18 1522.5 1230.58"/><polygon class="cls-3" points="609.5 1758.18 609.7 1758.08 609.5 1757.98 609.5 1406.58 913.6 1230.98 913.4 1230.78 609.5 1406.28 305.6 1230.78 305.4 1230.98 609.5 1406.58 609.5 1757.98 609.3 1758.08 609.5 1758.18 609.5 1758.18"/><polygon class="cls-3" points="1218.2 1406.58 1522.3 1230.98 1522.1 1230.78 1218.2 1406.28 914.3 1230.78 914.1 1230.98 1218.2 1406.58 1218.2 1757.98 1218 1758.08 1218.2 1758.18 1218.2 1758.18 1218.2 1758.18 1218.4 1758.08 1218.2 1757.98 1218.2 1406.58"/><polygon class="cls-3" points="2130.8 1230.78 1826.9 1406.28 1523 1230.78 1522.8 1230.98 1826.9 1406.58 2131 1230.98 2130.8 1230.78"/><polygon class="cls-3" points="1826.9 1758.18 1827.1 1758.08 1826.9 1757.98 1826.7 1758.08 1826.9 1758.18 1826.9 1758.18"/><polygon class="cls-3" points="609.5 703.38 913.8 527.68 913.8 176.28 609.5 0.58 305.1 176.28 305.1 527.68 609.5 703.38 609.5 703.38"/><polygon class="cls-3" points="1218.2 703.38 1218.2 703.38 1218.2 703.38 1522.5 527.68 1522.5 176.28 1218.2 0.58 913.8 176.28 913.8 527.68 1218.2 703.38"/><polygon class="cls-3" points="1826.9 703.38 2131.2 527.68 2131.2 527.68 2131.2 176.28 2131.2 176.28 1826.9 0.58 1522.5 176.28 1522.5 527.68 1826.9 703.38 1826.9 703.38"/><polygon class="cls-3" points="2131.2 527.68 2131.2 527.68 2131.2 527.68 2131.2 176.28 2131.2 176.28 2131.2 176.28 2131.2 527.68"/><polygon class="cls-3" points="2435.4 1758.08 2131.2 1582.48 1827.1 1758.08 2131.2 1933.68 2435.4 1758.08"/><polygon class="cls-3" points="2131.2 1230.78 2131.2 1230.78 2131.2 1230.78 2131 1230.98 2131.2 1231.08 2131.5 1230.98 2131.2 1230.78"/><polygon class="cls-3" points="2131.2 1230.78 2131.2 1230.78 2131.2 1230.78 2131.2 1230.78"/><polygon class="cls-3" points="2131.5 1230.98 2131.2 1231.08 2131.2 1231.08 2131.2 1582.48 2131.2 1582.48 2435.4 1758.08 2435.6 1757.98 2435.6 1406.58 2131.5 1230.98"/><polygon class="cls-3" points="2131.2 1231.08 2131.2 1231.08 2131 1230.98 1826.9 1406.58 1826.9 1757.98 1827.1 1758.08 2131.2 1582.48 2131.2 1231.08"/><polygon class="cls-3" points="2131.2 1231.08 2131.2 1231.08 2131.2 1231.08 2131.2 1582.48 2131.2 1582.48 2131.2 1231.08"/><polygon class="cls-3" points="2435.8 1758.08 2739.9 1933.68 3044.1 1758.08 2739.9 1582.48 2435.8 1758.08"/><polygon class="cls-3" points="2739.9 1230.78 2739.9 1230.78 2739.7 1230.98 2739.9 1231.08 2740.2 1230.98 2739.9 1230.78"/><polygon class="cls-3" points="2739.9 1230.78 2739.9 1230.78 2739.9 1230.78 2739.9 1230.78"/><polygon class="cls-3" points="2739.9 1231.08 2739.7 1230.98 2435.6 1406.58 2435.6 1757.98 2435.8 1758.08 2739.9 1582.48 2739.9 1231.08"/><polygon class="cls-3" points="2739.9 1582.48 3044.1 1758.08 3044.3 1757.98 3044.3 1406.58 2740.2 1230.98 2739.9 1231.08 2739.9 1582.48"/><polygon class="cls-3" points="3044.5 1758.08 3348.6 1933.68 3652.8 1758.08 3348.6 1582.48 3044.5 1758.08"/><polygon class="cls-3" points="3348.6 1230.78 3348.6 1230.78 3348.4 1230.98 3348.6 1231.08 3348.9 1230.98 3348.6 1230.78"/><polygon class="cls-3" points="3348.6 1230.78 3348.6 1230.78 3348.6 1230.78 3348.6 1230.78"/><polygon class="cls-3" points="3348.6 1231.08 3348.4 1230.98 3044.3 1406.58 3044.3 1757.98 3044.5 1758.08 3348.6 1582.48 3348.6 1231.08"/><polygon class="cls-3" points="3348.6 1582.48 3652.8 1758.08 3653 1757.98 3653 1406.58 3348.9 1230.98 3348.6 1231.08 3348.6 1582.48"/><polygon class="cls-3" points="3653.2 1758.08 3957.3 1933.68 4261.5 1758.08 3957.3 1582.48 3653.2 1758.08"/><polygon class="cls-3" points="3957.3 1230.78 3957.3 1230.78 3957.1 1230.98 3957.3 1231.08 3957.5 1230.98 3957.3 1230.78"/><polygon class="cls-3" points="3957.25 1230.83 3957.25 1230.83 3957.25 1230.83 3957.25 1230.83"/><polygon class="cls-3" points="3653 1757.98 3653.2 1758.08 3957.3 1582.48 3957.3 1231.08 3957.1 1230.98 3653 1406.58 3653 1757.98"/><polygon class="cls-3" points="3957.3 1582.48 4261.5 1758.08 4261.7 1757.98 4261.7 1406.58 3957.5 1230.98 3957.3 1231.08 3957.3 1582.48"/><polygon class="cls-3" points="2435.6 1758.18 2435.6 1758.18 2435.6 1758.18 2131.2 1933.98 2131.2 1933.98 2131.2 2285.38 2131.2 2285.38 2435.6 2461.08 2739.9 2285.38 2739.9 1933.98 2435.6 1758.18"/><circle class="cls-3" cx="2435.6" cy="1758.18"/><polygon class="cls-3" points="3044.3 1758.18 3044.3 1758.18 3044.3 1758.18 2739.9 1933.98 2739.9 2285.38 3044.3 2461.08 3348.6 2285.38 3348.6 1933.98 3044.3 1758.18"/><circle class="cls-3" cx="3044.3" cy="1758.18"/><polygon class="cls-3" points="3653 1758.18 3653 1758.18 3653 1758.18 3348.6 1933.98 3348.6 2285.38 3653 2461.08 3957.3 2285.38 3957.3 1933.98 3653 1758.18"/><circle class="cls-3" cx="3653" cy="1758.18"/><polygon class="cls-3" points="4261.7 1758.18 3957.3 1933.98 3957.3 2285.38 4261.7 2461.08 4566 2285.38 4566 1933.98 4261.7 1758.18 4261.7 1758.18"/><polygon class="cls-3" points="2435.6 1055.38 2739.5 1230.78 2739.7 1230.68 2435.6 1055.08 2131.7 1230.58 2131.7 1230.58 2131.7 1230.58 2131.5 1230.68 2131.7 1230.78 2435.6 1055.38"/><polygon class="cls-3" points="2435.6 703.68 2435.8 703.58 2435.6 703.38 2435.6 703.38 2435.6 703.38 2435.4 703.58 2435.6 703.68"/><polygon class="cls-3" points="2131.2 879.18 2131.7 879.18 2131.7 1230.58 2435.6 1055.08 2435.6 703.68 2435.4 703.58 2131.2 879.18 2131.2 879.18"/><polygon class="cls-3" points="2131.2 1230.58 2131.2 1230.58 2131.2 1230.58 2131.5 1230.68 2131.7 1230.58 2131.2 1230.58"/><polygon class="cls-3" points="2739.7 1230.68 2739.9 1230.58 2739.9 879.18 2435.8 703.58 2435.6 703.68 2435.6 1055.08 2739.7 1230.68"/><polygon class="cls-3" points="2131.7 1230.78 2435.6 1406.28 2739.5 1230.78 2435.6 1055.38 2131.7 1230.78"/><circle class="cls-3" cx="2435.6" cy="703.38"/><polygon class="cls-3" points="3044.3 703.68 3044.3 1055.08 2740.2 1230.68 2740.4 1230.78 3044.3 1055.38 3348.2 1230.78 3348.4 1230.68 3044.3 1055.08 3044.3 703.68 3044.5 703.58 3044.3 703.38 3044.3 703.38 3044.3 703.38 3044.1 703.58 3044.3 703.68"/><polygon class="cls-3" points="2739.9 1230.58 2740.2 1230.68 3044.3 1055.08 3044.3 703.68 3044.1 703.58 2739.9 879.18 2739.9 1230.58"/><polygon class="cls-3" points="3348.6 879.18 3044.5 703.58 3044.3 703.68 3044.3 1055.08 3348.4 1230.68 3348.6 1230.58 3348.6 879.18"/><polygon class="cls-3" points="2740.4 1230.78 3044.3 1406.28 3348.2 1230.78 3044.3 1055.38 2740.4 1230.78"/><circle class="cls-3" cx="3044.3" cy="703.38"/><polygon class="cls-3" points="3653 703.68 3653 1055.08 3348.9 1230.68 3349.1 1230.78 3653 1055.38 3956.9 1230.78 3957.1 1230.68 3653 1055.08 3653 703.68 3653.2 703.58 3653 703.38 3653 703.38 3653 703.38 3652.8 703.58 3653 703.68"/><polygon class="cls-3" points="3348.6 1230.58 3348.9 1230.68 3653 1055.08 3653 703.68 3652.8 703.58 3348.6 879.18 3348.6 1230.58"/><polygon class="cls-3" points="3653 1055.08 3957.1 1230.68 3957.3 1230.58 3957.3 879.18 3653.2 703.58 3653 703.68 3653 1055.08"/><polygon class="cls-3" points="3349.1 1230.78 3653 1406.28 3956.9 1230.78 3653 1055.38 3349.1 1230.78"/><circle class="cls-3" cx="3653" cy="703.38"/><polygon class="cls-3" points="4261.7 703.38 4261.5 703.58 4261.7 703.68 4261.7 1055.08 3957.5 1230.68 3957.8 1230.78 4261.7 1055.38 4565.6 1230.78 4566 1230.58 4566 879.18 4261.7 703.38 4261.7 703.38"/><polygon class="cls-3" points="3957.3 1230.58 3957.5 1230.68 4261.7 1055.08 4261.7 703.68 4261.5 703.58 3957.3 879.18 3957.3 1230.58"/><polygon class="cls-3" points="3957.8 1230.78 4261.7 1406.28 4565.6 1230.78 4261.7 1055.38 3957.8 1230.78"/><polygon class="cls-3" points="305.1 1231.08 305.4 1230.98 305.1 1230.78 305.1 1230.78 305.1 1230.78 304.9 1230.98 305.1 1231.08 305.1 1582.48 1 1758.08 305.1 1933.68 609.3 1758.08 305.1 1582.48 305.1 1231.08"/><polygon class="cls-3" points="609.5 1406.58 305.4 1230.98 305.1 1231.08 305.1 1582.48 609.3 1758.08 609.5 1757.98 609.5 1406.58"/><polygon class="cls-3" points="913.8 1230.78 913.8 1230.78 913.6 1230.98 913.8 1231.08 914.1 1230.98 913.8 1230.78"/><polygon class="cls-3" points="609.7 1758.08 913.8 1933.68 1218 1758.08 913.8 1582.48 609.7 1758.08"/><circle class="cls-3" cx="913.8" cy="1230.78"/><polygon class="cls-3" points="913.8 1231.08 913.6 1230.98 609.5 1406.58 609.5 1757.98 609.7 1758.08 913.8 1582.48 913.8 1231.08"/><polygon class="cls-3" points="913.8 1582.48 1218 1758.08 1218.2 1757.98 1218.2 1406.58 914.1 1230.98 913.8 1231.08 913.8 1582.48"/><polygon class="cls-3" points="1522.5 1231.08 1522.8 1230.98 1522.5 1230.78 1522.5 1230.78 1522.5 1230.78 1522.3 1230.98 1522.5 1231.08 1522.5 1582.48 1218.4 1758.08 1522.5 1933.68 1826.7 1758.08 1522.5 1582.48 1522.5 1231.08"/><circle class="cls-3" cx="1522.5" cy="1230.78"/><polygon class="cls-3" points="1522.5 1231.08 1522.3 1230.98 1218.2 1406.58 1218.2 1757.98 1218.4 1758.08 1522.5 1582.48 1522.5 1231.08"/><polygon class="cls-3" points="1826.9 1757.98 1826.9 1406.58 1826.9 1406.58 1522.8 1230.98 1522.5 1231.08 1522.5 1582.48 1826.7 1758.08 1826.9 1757.98"/><rect class="cls-3" x="1826.9" y="1406.58" height="351.4"/><polygon class="cls-3" points="609.5 1758.18 609.5 1758.18 609.5 1758.18 305.1 1933.98 305.1 2285.38 609.5 2461.08 913.8 2285.38 913.8 1933.98 609.5 1758.18"/><circle class="cls-3" cx="609.5" cy="1758.18"/><polygon class="cls-3" points="1218.2 1758.18 913.8 1933.98 913.8 2285.38 1218.2 2461.08 1522.5 2285.38 1522.5 1933.98 1218.2 1758.18 1218.2 1758.18"/><circle class="cls-3" cx="1218.2" cy="1758.18"/><polygon class="cls-3" points="2131.2 1933.98 1826.9 1758.18 1826.9 1758.18 1826.9 1758.18 1522.5 1933.98 1522.5 2285.38 1826.9 2461.08 2131.2 2285.38 2131.2 2285.38 2131.2 1933.98"/><circle class="cls-3" cx="1826.9" cy="1758.18"/><polygon class="cls-3" points="2131.2 1933.98 2131.2 1933.98 2131.2 2285.38 2131.2 2285.38 2131.2 2285.38 2131.2 1933.98"/><polygon class="cls-3" points="609.5 1055.08 305.4 1230.68 305.6 1230.78 609.5 1055.38 913.4 1230.78 913.6 1230.68 609.5 1055.08 609.5 703.68 609.7 703.58 609.5 703.38 609.5 703.38 609.5 703.38 609.3 703.58 609.5 703.68 609.5 1055.08"/><polygon class="cls-3" points="305.1 1230.58 305.4 1230.68 609.5 1055.08 609.5 703.68 609.3 703.58 305.1 879.18 305.1 1230.58"/><polygon class="cls-3" points="913.8 879.18 609.7 703.58 609.5 703.68 609.5 1055.08 913.6 1230.68 913.8 1230.58 913.8 879.18"/><polygon class="cls-3" points="305.6 1230.78 609.5 1406.28 913.4 1230.78 609.5 1055.38 305.6 1230.78"/><circle class="cls-3" cx="609.5" cy="703.38"/><polygon class="cls-3" points="1218.2 703.38 1218 703.58 1218.2 703.68 1218.2 1055.08 914.1 1230.68 914.3 1230.78 1218.2 1055.38 1522.1 1230.78 1522.3 1230.68 1218.2 1055.08 1218.2 703.68 1218.4 703.58 1218.2 703.38 1218.2 703.38"/><polygon class="cls-3" points="913.8 1230.58 914.1 1230.68 1218.2 1055.08 1218.2 703.68 1218 703.58 913.8 879.18 913.8 1230.58"/><polygon class="cls-3" points="1218.2 1055.08 1522.3 1230.68 1522.5 1230.58 1522.5 879.18 1218.4 703.58 1218.2 703.68 1218.2 1055.08"/><polygon class="cls-3" points="914.3 1230.78 1218.2 1406.28 1522.1 1230.78 1218.2 1055.38 914.3 1230.78"/><circle class="cls-3" cx="1218.2" cy="703.38"/><polygon class="cls-3" points="1826.9 1055.38 2130.8 1230.78 2131 1230.68 2130.8 1230.58 2130.7 1230.58 2130.7 1230.58 1826.9 1055.08 1522.8 1230.68 1523 1230.78 1826.9 1055.38"/><polygon class="cls-3" points="1827.1 703.58 1826.9 703.38 1826.9 703.38 1826.9 703.38 1826.7 703.58 1826.9 703.68 1827.1 703.58"/><polygon class="cls-3" points="2130.7 1054.88 2130.7 879.18 2131.2 879.18 2131.2 879.18 2131.2 879.18 1827.1 703.58 1826.9 703.68 1826.9 703.68 1826.9 1055.08 1826.9 1055.08 2130.7 1230.58 2130.7 1054.88"/><polygon class="cls-3" points="2131.2 1230.58 2130.8 1230.58 2131 1230.68 2131.2 1230.58"/><polygon class="cls-3" points="1522.5 1230.58 1522.8 1230.68 1826.9 1055.08 1826.9 1055.08 1826.9 703.68 1826.9 703.68 1826.7 703.58 1522.5 879.18 1522.5 1230.58"/><polygon class="cls-3" points="1826.9 703.68 1826.9 703.68 1826.9 703.68 1826.9 1055.08 1826.9 1055.08 1826.9 1055.08 1826.9 703.68"/><polygon class="cls-3" points="1523 1230.78 1826.9 1406.28 2130.8 1230.78 1826.9 1055.38 1523 1230.78"/><circle class="cls-3" cx="1826.9" cy="703.38"/><rect class="cls-3" x="2131.2" y="879.18" height="351.4"/><path class="cls-3" d="M2131.7,1230.58" transform="translate(0 0)"/><polygon class="cls-3" points="2131.7 1230.58 2131.7 879.18 2131.2 879.18 2131.2 1230.58 2131.7 1230.58"/><path class="cls-3" d="M2130.7,1230.58" transform="translate(0 0)"/><polygon class="cls-3" points="2131.2 879.18 2130.7 879.18 2130.7 1054.88 2130.7 1230.58 2130.8 1230.58 2131.2 1230.58 2131.2 879.18"/></g></svg>