<svg id="Layer_1" data-name="Layer 1" xmlns="http://www.w3.org/2000/svg" viewBox="0 0 29.63 29.63"><defs><style>.cls-1{fill:none;stroke:#fff;stroke-miterlimit:10;stroke-width:0.88px;}.cls-2{fill:#fff;fill-rule:evenodd;}</style></defs><title>instagram_logo01a</title><g id="Instagram"><circle id="back" class="cls-1" cx="14.81" cy="14.81" r="14.37"/><path id="Instagram-2" data-name="Instagram" class="cls-2" d="M21.56,14.13h-1.4a5,5,0,1,1-9.58,0H9.18v6.81a.62.62,0,0,0,.62.62H20.94a.62.62,0,0,0,.62-.62Zm0-4.33a.62.62,0,0,0-.62-.62H19.08a.62.62,0,0,0-.62.62v1.86a.62.62,0,0,0,.62.62h1.86a.62.62,0,0,0,.62-.62Zm-6.19,2.48a3.1,3.1,0,1,0,3.1,3.09,3.09,3.09,0,0,0-3.1-3.09m6.19,11.14H9.18a1.86,1.86,0,0,1-1.86-1.86V9.18A1.86,1.86,0,0,1,9.18,7.32H21.56a1.86,1.86,0,0,1,1.86,1.86V21.56a1.86,1.86,0,0,1-1.86,1.86" transform="translate(-0.56 -0.56)"/></g></svg>