<svg id="Layer_1" data-name="Layer 1" xmlns="http://www.w3.org/2000/svg" viewBox="0 0 29.63 29.63"><defs><style>.cls-1{fill:none;stroke:#fff;stroke-miterlimit:10;stroke-width:0.88px;}.cls-2{fill:#fff;}</style></defs><title>linkedin_logo</title><g id="Linkedin"><circle id="back" class="cls-1" cx="14.81" cy="14.81" r="14.37"/><g id="Linkedin-2" data-name="Linkedin"><path class="cls-2" d="M7.53,12.62h3.34V23.35H7.53ZM9.2,7.28A1.93,1.93,0,1,1,7.26,9.22,1.93,1.93,0,0,1,9.2,7.28" transform="translate(-0.56 -0.56)"/><path class="cls-2" d="M13,12.62h3.2v1.47h0a3.5,3.5,0,0,1,3.16-1.73c3.38,0,4,2.22,4,5.11v5.89H20V18.13c0-1.24,0-2.85-1.73-2.85s-2,1.36-2,2.76v5.31H13Z" transform="translate(-0.56 -0.56)"/></g></g></svg>