<svg id="Layer_1" data-name="Layer 1" xmlns="http://www.w3.org/2000/svg" viewBox="0 0 411.1 241.93"><defs><style>.cls-1{fill:#e6af0f;}.cls-2{fill:#ffd300;}.cls-3{fill:#fff;}</style></defs><title>rplcon_logo_large01a</title><polygon class="cls-1" points="214.36 185.64 107.18 125.23 107.18 81.5 178.4 119.82 178.86 82.41 107.18 41.78 107.18 0 214.36 61.69 214.36 185.64"/><polygon class="cls-2" points="0 185.64 107.18 125.23 107.18 81.5 35.96 121.71 35.5 84.3 107.18 41.78 107.18 0 0 61.69 0 185.64"/><path class="cls-3" d="M296.9,85.55q0,15.58-13.08,20.12l17.4,23.18H282.35l-15.24-20.68H256.49v20.68H241.15V64h26.06q16,0,22.86,5.1T296.9,85.55Zm-18.48,7.7q2.85-2.41,2.85-7.65t-2.95-7.19q-2.95-1.95-10.32-1.95h-11.5V95.66H267.7Q275.56,95.66,278.41,93.24Z" transform="translate(-1 -1)"/><path class="cls-3" d="M354.07,69.83q7.23,5.8,7.23,17.8t-7.42,17.57q-7.43,5.56-22.66,5.56h-9.14v18.08H306.73V64H331Q346.85,64,354.07,69.83Zm-11.26,25.5q2.75-2.92,2.75-8.53t-3.59-8q-3.59-2.36-11.16-2.36h-8.75V98.25h10.32Q340.06,98.25,342.81,95.33Z" transform="translate(-1 -1)"/><path class="cls-3" d="M367.39,128.85V64h15.34V116H412v12.89Z" transform="translate(-1 -1)"/><path class="cls-1" d="M267,180.8a18.29,18.29,0,0,0,14.93-7.23l7.94,8.18q-9.45,10.65-22.28,10.65t-21.13-8.1q-8.3-8.1-8.3-20.46a27.64,27.64,0,0,1,8.46-20.61A28.5,28.5,0,0,1,267.27,135a29.33,29.33,0,0,1,22.88,10.41l-7.71,8.74q-5.88-7.31-14.62-7.31a17,17,0,0,0-12,4.57q-5,4.57-5,12.31t4.69,12.43A15.47,15.47,0,0,0,267,180.8Z" transform="translate(-1 -1)"/><path class="cls-1" d="M345.12,184.1a30.25,30.25,0,0,1-41.47,0,29.06,29.06,0,0,1,0-40.91,30.25,30.25,0,0,1,41.47,0,29.06,29.06,0,0,1,0,40.91Zm-4.21-20.42A18.17,18.17,0,0,0,336.14,151a15.71,15.71,0,0,0-23.44,0,19.17,19.17,0,0,0,0,25.3,15.8,15.8,0,0,0,23.44,0A18,18,0,0,0,340.91,163.68Z" transform="translate(-1 -1)"/><path class="cls-1" d="M399.7,136.23h12.39v55.53H399.7L373.24,157v34.79H360.85V136.23h11.6L399.7,172Z" transform="translate(-1 -1)"/><path class="cls-3" d="M9.37,239.77a5.4,5.4,0,0,0,4.31-2L16,240a8.56,8.56,0,0,1-6.43,2.9,8.66,8.66,0,0,1-6.1-2.21,7.67,7.67,0,0,1,0-11.18,8.49,8.49,0,0,1,6-2.25,8.69,8.69,0,0,1,6.6,2.83l-2.22,2.38a5.33,5.33,0,0,0-4.22-2,5.09,5.09,0,0,0-3.45,1.24,4.21,4.21,0,0,0-1.43,3.35,4.43,4.43,0,0,0,1.35,3.38A4.6,4.6,0,0,0,9.37,239.77Z" transform="translate(-1 -1)"/><path class="cls-3" d="M34.22,240.67a8.51,8.51,0,0,1-6,2.24,8.5,8.5,0,0,1-6-2.24,7.59,7.59,0,0,1,0-11.14,8.5,8.5,0,0,1,6-2.24,8.51,8.51,0,0,1,6,2.24,7.59,7.59,0,0,1,0,11.14ZM33,235.11a4.79,4.79,0,0,0-1.38-3.45,4.72,4.72,0,0,0-6.76,0,5,5,0,0,0,0,6.89,4.74,4.74,0,0,0,6.76,0A4.75,4.75,0,0,0,33,235.11Z" transform="translate(-1 -1)"/><path class="cls-3" d="M56.32,233.24,52,241.5H49.86l-4.31-8.26v9.51H42V227.64h4.84l4.13,8.3,4.15-8.3H59.9v15.11H56.32Z" transform="translate(-1 -1)"/><path class="cls-3" d="M80.49,233.24l-4.33,8.26H74l-4.31-8.26v9.51H66.14V227.64H71l4.13,8.3,4.15-8.3h4.81v15.11H80.49Z" transform="translate(-1 -1)"/><path class="cls-3" d="M101.86,227.64v3h-8v3.11h7.18v2.88H93.88v3.13h8.23v3H90.3V227.64Z" transform="translate(-1 -1)"/><path class="cls-3" d="M120.59,232.66q0,3.63-3,4.69l4.06,5.41h-4.4l-3.55-4.82h-2.48v4.82h-3.58V227.64h6.08q3.74,0,5.33,1.19A4.46,4.46,0,0,1,120.59,232.66Zm-4.31,1.79a2.21,2.21,0,0,0,.67-1.78,1.86,1.86,0,0,0-.69-1.68,4.62,4.62,0,0,0-2.41-.45h-2.68V235h2.61A4,4,0,0,0,116.28,234.45Z" transform="translate(-1 -1)"/><path class="cls-3" d="M133.91,239.77a5.4,5.4,0,0,0,4.31-2l2.29,2.23a8.56,8.56,0,0,1-6.43,2.9,8.66,8.66,0,0,1-6.1-2.21,7.67,7.67,0,0,1,0-11.18,8.49,8.49,0,0,1,6-2.25,8.69,8.69,0,0,1,6.6,2.83l-2.22,2.38a5.33,5.33,0,0,0-4.22-2,5.09,5.09,0,0,0-3.45,1.24,4.21,4.21,0,0,0-1.43,3.35,4.43,4.43,0,0,0,1.35,3.38A4.6,4.6,0,0,0,133.91,239.77Z" transform="translate(-1 -1)"/><path class="cls-3" d="M145.63,227.64h3.58v15.11h-3.58Z" transform="translate(-1 -1)"/><path class="cls-3" d="M166.86,242.75l-1.49-3.26h-6.72l-1.49,3.26h-3.81l6.92-15.11h3.46l6.92,15.11ZM162,232.14l-2,4.39h4Z" transform="translate(-1 -1)"/><path class="cls-3" d="M174.82,242.75V227.64h3.58v12.11h6.83v3Z" transform="translate(-1 -1)"/><path class="cls-3" d="M205.84,239.77a5.4,5.4,0,0,0,4.31-2l2.29,2.23a8.56,8.56,0,0,1-6.43,2.9,8.66,8.66,0,0,1-6.1-2.21,7.67,7.67,0,0,1,0-11.18,8.49,8.49,0,0,1,6-2.25,8.69,8.69,0,0,1,6.6,2.83l-2.22,2.38a5.33,5.33,0,0,0-4.22-2,5.09,5.09,0,0,0-3.45,1.24,4.21,4.21,0,0,0-1.43,3.35,4.43,4.43,0,0,0,1.35,3.38A4.6,4.6,0,0,0,205.84,239.77Z" transform="translate(-1 -1)"/><path class="cls-3" d="M230.69,240.67a9.12,9.12,0,0,1-12,0,7.59,7.59,0,0,1,0-11.14,9.12,9.12,0,0,1,12,0,7.59,7.59,0,0,1,0,11.14Zm-1.22-5.56a4.79,4.79,0,0,0-1.38-3.45,4.72,4.72,0,0,0-6.76,0,5,5,0,0,0,0,6.89,4.74,4.74,0,0,0,6.76,0A4.75,4.75,0,0,0,229.48,235.11Z" transform="translate(-1 -1)"/><path class="cls-3" d="M249.65,227.64h3.58v15.11h-3.58L242,233.28v9.47h-3.58V227.64h3.35l7.86,9.73Z" transform="translate(-1 -1)"/><path class="cls-3" d="M263.21,230.66a1.28,1.28,0,0,0-.52,1.06,1.18,1.18,0,0,0,.63,1,12,12,0,0,0,2.91.92,8.42,8.42,0,0,1,3.54,1.59,3.81,3.81,0,0,1,1.26,3.09,4,4,0,0,1-1.62,3.3,6.71,6.71,0,0,1-4.25,1.26,10.16,10.16,0,0,1-6.86-2.66l2.13-2.47a7.8,7.8,0,0,0,4.79,2.14,2.63,2.63,0,0,0,1.55-.4,1.26,1.26,0,0,0,.56-1.08,1.24,1.24,0,0,0-.6-1.08,8.1,8.1,0,0,0-2.36-.81,10.59,10.59,0,0,1-4.09-1.63,3.75,3.75,0,0,1-1.3-3.16,3.83,3.83,0,0,1,1.64-3.32,6.88,6.88,0,0,1,4.09-1.17,10.36,10.36,0,0,1,3.21.52,8.76,8.76,0,0,1,2.8,1.47l-1.81,2.47a7.32,7.32,0,0,0-4.31-1.49A2.25,2.25,0,0,0,263.21,230.66Z" transform="translate(-1 -1)"/><path class="cls-3" d="M283,230.56v12.2h-3.58v-12.2h-4.54v-2.92h12.66v2.92Z" transform="translate(-1 -1)"/><path class="cls-3" d="M305.48,232.66q0,3.63-3,4.69l4.06,5.41h-4.4l-3.55-4.82h-2.48v4.82h-3.58V227.64h6.08q3.74,0,5.33,1.19A4.46,4.46,0,0,1,305.48,232.66Zm-4.31,1.79a2.21,2.21,0,0,0,.67-1.78,1.86,1.86,0,0,0-.69-1.68,4.62,4.62,0,0,0-2.41-.45h-2.68V235h2.61A4,4,0,0,0,301.17,234.45Z" transform="translate(-1 -1)"/><path class="cls-3" d="M315.68,238.85a3,3,0,0,0,2.41,1,3,3,0,0,0,2.4-1,4.31,4.31,0,0,0,.88-2.87v-8.35h3.58v8.45a6.5,6.5,0,0,1-1.93,5,7.77,7.77,0,0,1-9.87,0,6.48,6.48,0,0,1-1.94-5v-8.45h3.58V236A4.27,4.27,0,0,0,315.68,238.85Z" transform="translate(-1 -1)"/><path class="cls-3" d="M338.31,239.77a5.4,5.4,0,0,0,4.31-2l2.29,2.23a8.56,8.56,0,0,1-6.43,2.9,8.66,8.66,0,0,1-6.1-2.21,7.67,7.67,0,0,1,0-11.18,8.49,8.49,0,0,1,6-2.25,8.69,8.69,0,0,1,6.6,2.83l-2.22,2.38a5.33,5.33,0,0,0-4.22-2,5.09,5.09,0,0,0-3.45,1.24,4.21,4.21,0,0,0-1.43,3.35,4.43,4.43,0,0,0,1.35,3.38A4.6,4.6,0,0,0,338.31,239.77Z" transform="translate(-1 -1)"/><path class="cls-3" d="M356.82,230.56v12.2h-3.58v-12.2H348.7v-2.92h12.66v2.92Z" transform="translate(-1 -1)"/><path class="cls-3" d="M366.26,227.64h3.58v15.11h-3.58Z" transform="translate(-1 -1)"/><path class="cls-3" d="M389.56,240.67a9.12,9.12,0,0,1-12,0,7.59,7.59,0,0,1,0-11.14,9.12,9.12,0,0,1,12,0,7.59,7.59,0,0,1,0,11.14Zm-1.22-5.56a4.79,4.79,0,0,0-1.38-3.45,4.72,4.72,0,0,0-6.76,0,5,5,0,0,0,0,6.89,4.74,4.74,0,0,0,6.76,0A4.75,4.75,0,0,0,388.34,235.11Z" transform="translate(-1 -1)"/><path class="cls-3" d="M408.52,227.64h3.58v15.11h-3.58l-7.63-9.47v9.47h-3.58V227.64h3.35l7.86,9.73Z" transform="translate(-1 -1)"/></svg>