<svg id="Layer_1" data-name="Layer 1" xmlns="http://www.w3.org/2000/svg" viewBox="0 0 104.97 48.87"><defs><style>.cls-1{fill:#e6af0f;}.cls-2{fill:#ffd300;}.cls-3{fill:#fff;}</style></defs><title>rplcon_logo_small01a</title><polygon class="cls-1" points="54.73 47.4 27.37 31.98 27.37 20.81 45.55 30.6 45.67 21.04 27.37 10.67 27.37 0 54.73 15.75 54.73 47.4"/><polygon class="cls-2" points="0 47.4 27.37 31.98 27.37 20.81 9.18 31.08 9.06 21.53 27.37 10.67 27.37 0 0 15.75 0 47.4"/><path class="cls-3" d="M76.56,22.59q0,4-3.34,5.14l4.44,5.92H72.84l-3.89-5.28H66.24v5.28H62.32V17.1H69q4.09,0,5.84,1.3A4.89,4.89,0,0,1,76.56,22.59Zm-4.72,2a2.42,2.42,0,0,0,.73-2,2,2,0,0,0-.75-1.83,5.06,5.06,0,0,0-2.64-.5H66.24v4.9H69.1A4.4,4.4,0,0,0,71.84,24.55Z" transform="translate(-1 -1)"/><path class="cls-3" d="M91.16,18.58A5.48,5.48,0,0,1,93,23.12a5.24,5.24,0,0,1-1.9,4.49Q89.21,29,85.32,29H83v4.62H79.07V17.1h6.2Q89.31,17.1,91.16,18.58Zm-2.87,6.51a3.06,3.06,0,0,0,.7-2.18,2.25,2.25,0,0,0-.92-2,5.28,5.28,0,0,0-2.85-.6H83v5.56h2.64A3.63,3.63,0,0,0,88.28,25.09Z" transform="translate(-1 -1)"/><path class="cls-3" d="M94.56,33.65V17.1h3.92V30.36H106v3.29Z" transform="translate(-1 -1)"/><path class="cls-1" d="M68.91,46.91a4.67,4.67,0,0,0,3.81-1.85l2,2.09a7.65,7.65,0,0,1-11.09.65,7.49,7.49,0,0,1,0-10.49A7.28,7.28,0,0,1,69,35.21a7.49,7.49,0,0,1,5.84,2.66l-2,2.23a4.61,4.61,0,0,0-3.73-1.87,4.35,4.35,0,0,0-3.05,1.17,4.06,4.06,0,0,0-1.27,3.14A4.29,4.29,0,0,0,66,45.71,4,4,0,0,0,68.91,46.91Z" transform="translate(-1 -1)"/><path class="cls-1" d="M88.87,47.75a7.72,7.72,0,0,1-10.59,0,7.42,7.42,0,0,1,0-10.45,7.72,7.72,0,0,1,10.59,0,7.42,7.42,0,0,1,0,10.45Zm-1.07-5.21a4.64,4.64,0,0,0-1.22-3.24,4,4,0,0,0-6,0,4.9,4.9,0,0,0,0,6.46,4,4,0,0,0,6,0A4.6,4.6,0,0,0,87.79,42.54Z" transform="translate(-1 -1)"/><path class="cls-1" d="M102.8,35.53H106V49.71H102.8L96,40.83v8.88H92.89V35.53h3l7,9.13Z" transform="translate(-1 -1)"/></svg>